<?xml version="1.0" standalone="no"?>
<!DOCTYPE svg PUBLIC "-//W3C//DTD SVG 20010904//EN"
 "http://www.w3.org/TR/2001/REC-SVG-20010904/DTD/svg10.dtd">
<svg version="1.0" xmlns="http://www.w3.org/2000/svg"
 width="116.000000pt" height="116.000000pt" viewBox="0 0 116.000000 116.000000"
 preserveAspectRatio="xMidYMid meet">
<metadata>
Created by potrace 1.11, written by Peter Selinger 2001-2013
</metadata>
<g transform="translate(0.000000,116.000000) scale(0.100000,-0.100000)"
fill="#000000" stroke="none">
<path d="M453 1129 c-67 -26 -137 -94 -171 -167 -69 -147 -11 -340 195 -649
94 -140 99 -145 124 -113 64 81 176 261 224 361 90 189 101 298 41 417 -32 62
-112 135 -173 156 -65 22 -175 20 -240 -5z m214 -223 c25 -27 33 -45 33 -73 0
-82 -74 -143 -149 -123 -79 21 -114 106 -75 181 35 68 136 76 191 15z"/>
<path d="M161 398 c-5 -13 -41 -103 -80 -201 -39 -97 -71 -179 -71 -182 0 -3
257 -5 571 -5 453 0 570 3 566 13 -3 6 -39 99 -82 205 l-77 192 -72 0 -71 0
-22 -40 c-13 -21 -23 -41 -23 -44 0 -4 31 -6 68 -6 l69 0 42 -107 c24 -60 45
-114 48 -120 4 -10 -89 -13 -446 -13 -248 0 -451 2 -451 5 0 3 21 57 47 120
l46 115 69 0 c37 0 68 2 68 5 0 3 -11 23 -25 45 l-25 40 -70 0 c-64 0 -71 -2
-79 -22z"/>
</g>
</svg>
